# xmcd CD database file
#
# Track frame offsets:
#	180
#	27357
#	51792
#	71274
#	87872
#	112577
#	136108
#	149978
#	174202
#	191970
#	208079
#	233344
#
# Disc length: 3312 seconds
#
# Revision: 2
# Processed by: cddbd v1.4b41PL1 Copyright (c) Steve Scherf et al.
# Submitted via: Feurio! 1.52 - http://www.feurio.com
#
DISCID=9f0cee0c
DTITLE=Dzem - The Singles
DYEAR=1900
DGENRE=
TTITLE0=Paw
TTITLE1=Whisky
TTITLE2=Dzien w ktorym peklo niebo
TTITLE3=Wokol sami lunatycy
TTITLE4=Skazany na bluesa
TTITLE5=Mala aleja roz
TTITLE6=Czlowieku co sie z toba dzieje
TTITLE7=Czerwony jak cegla
TTITLE8=Ostatni ciezki rok
TTITLE9=Nie jestes taki jak dawniej
TTITLE10=Naiwne pytania
TTITLE11=Zapal swieczke
EXTD=
EXTT0=
EXTT1=
EXTT2=
EXTT3=
EXTT4=
EXTT5=
EXTT6=
EXTT7=
EXTT8=
EXTT9=
EXTT10=
EXTT11=
PLAYORDER=
